Coordinates

Units are S.I. units (second, meters, Newtons, ...)
If the header above contains a line with 'inDegrees', this indicates whether rotational values are in degrees (yes) or radians (no).

inDegrees=no
nColumns=21
nRows=20
DataType=double
version=3
OpenSimVersion=4.6-2026-03-31-d6972f9e6
endheader
time	/jointset/ground_pelvis/pelvis_tilt/value	/jointset/ground_pelvis/pelvis_list/value	/jointset/ground_pelvis/pelvis_rotation/value	/jointset/ground_pelvis/pelvis_tx/value	/jointset/ground_pelvis/pelvis_ty/value	/jointset/ground_pelvis/pelvis_tz/value	/jointset/hip_r/hip_flexion_r/value	/jointset/hip_r/hip_adduction_r/value	/jointset/hip_r/hip_rotation_r/value	/jointset/walker_knee_r/knee_angle_r/value	/jointset/patellofemoral_r/knee_angle_r_beta/value	/jointset/ankle_r/ankle_angle_r/value	/jointset/subtalar_r/subtalar_angle_r/value	/jointset/hip_l/hip_flexion_l/value	/jointset/hip_l/hip_adduction_l/value	/jointset/hip_l/hip_rotation_l/value	/jointset/walker_knee_l/knee_angle_l/value	/jointset/patellofemoral_l/knee_angle_l_beta/value	/jointset/ankle_l/ankle_angle_l/value	/jointset/subtalar_l/subtalar_angle_l/value
142.496	-0.3334479451313993	-0.1261657275709074	-0.09347206994331302	1.121959971429732	1.011809894285403	-0.3432114346522217	0.719704010719412	0.1838912583710341	0.1555683555975817	0.3572371769857723	0.3572371777226574	0.05485329611513565	-0.3361815052128809	-0.1517178330574	-0.08483093993495076	-0.1471264706614049	0.2337208703175007	0.2337208697172567	-0.4879184223630225	-0.1561767055478214
142.5	-0.333236309412903	-0.1194628552837791	-0.09007915890389911	1.122393151364128	1.011512830711991	-0.3434275211143505	0.7147027887308919	0.1753487614292785	0.1605752716633079	0.3208657704302541	0.3208657711351555	0.05900307801198803	-0.3279225526713549	-0.1500535292608038	-0.07776898683908567	-0.142590399840087	0.2615031754202535	0.2615031749304202	-0.4851271294146525	-0.1569412323526714
142.504	-0.3325720824260667	-0.1127991553135573	-0.08637399271629997	1.122779949509406	1.011097258590759	-0.3436549385969883	0.7094083208232586	0.1666474246730372	0.1651139182457596	0.286801454848205	0.2868014554880624	0.0632154284766429	-0.3205102308697472	-0.1481827705775523	-0.07084783911185689	-0.1368256436055093	0.2905391987304887	0.2905391983458497	-0.4819855423409117	-0.1574600196739717
142.508	-0.3314397468201208	-0.1063012720284447	-0.08241508560626719	1.123124759284854	1.010573834265632	-0.3438886873072221	0.7038145754170279	0.1579536017401328	0.1691311828972891	0.2551961719725737	0.2551961725144919	0.0674605297707383	-0.314002674413846	-0.1461939918424731	-0.06419295690398316	-0.1300581638832345	0.3206205241108201	0.3206205238241838	-0.478740657725726	-0.1576866895664771
142.512	-0.3298281631702431	-0.1000886767092086	-0.0782654183343407	1.123432376494346	1.009951998567106	-0.3441233744441944	0.697916557695036	0.1494293085114126	0.1725788844352954	0.2261873755045469	0.2261873759183612	0.07170759646101295	-0.3084248301136022	-0.1441644616014086	-0.05792516836918719	-0.1225352293382718	0.3515577935413711	0.351557793343613	-0.4755973268211413	-0.1575948998220536
142.516	-0.3277310845695182	-0.09427222440774821	-0.07399112267730455	1.123707848330716	1.009239580922484	-0.3443532771787058	0.6917115518631091	0.1412300361425554	0.1754144022678362	0.1998958848939243	0.1998958851545273	0.07592364892210975	-0.3037699917210369	-0.1421592506616154	-0.05216014979885927	-0.1145175937477428	0.3831837427899414	0.3831837426696437	-0.4727139479157383	-0.1571813056306333
142.52	-0.3251476837714555	-0.08895298128015748	-0.06966008505049498	1.123956306975911	1.008442460437822	-0.3445724284111307	0.6852004632304535	0.1335027145404702	0.1776013966429852	0.1764239753693078	0.1764239754582672	0.08007232745114023	-0.3000030383804046	-0.1402305442210585	-0.04700790978808964	-0.1062714866111487	0.4153551647650967	0.4153551647080786	-0.4702004238436773	-0.1564673347139762
142.524	-0.3220830599404788	-0.08422122622403468	-0.06534056525758751	1.124182791217181	1.007564304408119	-0.344774721565443	0.6783892170666902	0.1263838005837529	0.179110664299002	0.1558538374747362	0.1558538373810966	0.08411298856791399	-0.2970651226052503	-0.1384173024133086	-0.04257211820833854	-0.09806073572277685	0.4479537550440942	0.4479537550332853	-0.468118491117418	-0.1554998034540104
142.528	-0.318548697459184	-0.08015558064259092	-0.06109991330229583	1.124392060312886	1.006606400489941	-0.3449540297648782	0.6712901704870072	0.1199975055509485	0.1799211100961475	0.138246525453631	0.1382465251740984	0.08800033181131173	-0.2948794106950928	-0.1367452433064608	-0.03894920626989966	-0.09013930870869377	0.4808858824382242	0.4808858824541714	-0.4664843483679778	-0.1543504471038866
142.532	-0.3145628606720943	-0.07682226385768105	-0.05700343398381246	1.124588404974675	1.005567592752508	-0.345104334350608	0.6639235018728433	0.1144542010522419	0.1800207395801252	0.1236414949246745	0.1236414944633642	0.09168475055894588	-0.2933574533125438	-0.135227084393483	-0.03622725260967063	-0.08274452884644797	0.5140814148972234	0.5140814149191506	-0.4652733254087668	-0.1531144022219127
142.536	-0.310150919132375	-0.07427450263191256	-0.0531134142750925	1.124775460720439	1.004444325173454	-0.34521985747239	0.6563185470122408	0.1098490555968484	0.1794075331944106	0.1120567970254877	0.1120567963932908	0.09511350584068722	-0.2924058026417158	-0.1338629525396443	-0.03448474089196336	-0.07609117949357254	0.547491791736922	0.547491791744062	-0.4644261911802391	-0.1519076384811237
142.54	-0.3053455934943062	-0.07255212307220144	-0.0494883196099578	1.124956029663031	1.003230791047512	-0.3452951923357225	0.6485150342461328	0.1062609520427413	0.1780900857641984	0.1034899491358541	0.1034899483495512	0.09823273990027347	-0.2919324997469964	-0.1326408848467739	-0.0337892900080558	-0.07036666520380805	0.5810875397245987	0.5810875396975808	-0.4638566361351486	-0.1508633735990137
142.544	-0.3001871052579239	-0.0716813457648061	-0.04618215795019665	1.12513191752386	1.001919183106724	-0.3453254247183632	0.6405641438097072	0.1037517240697759	0.1760879268651555	0.09791943384052733	0.09791943292186216	0.1009902666503416	-0.2918530370477881	-0.1315373654996975	-0.03419644951475665	-0.06572731956592608	0.6148554151559681	0.614855415078117	-0.4634594395865342	-0.1501275911813425
142.548	-0.2947232065420515	-0.07167480390168278	-0.04324399039180118	1.125303793172637	1.000500036299637	-0.3453062415962905	0.632529286876943	0.1023657312397038	0.1734314516228266	0.09530669591074413	0.0953066948855445	0.1033389885601387	-0.2920954105024144	-0.1305178641614934	-0.03574864440693178	-0.0622958485524575	0.6487953389890048	0.6487953388473995	-0.4631188358630519	-0.1498538650276109
142.552	-0.2890090347617315	-0.07253176690291444	-0.04071757702081315	1.12547107945056	0.9989626542049236	-0.3452340235804113	0.6244864577710361	0.1021297585157744	0.1701614660733272	0.09559845566905487	0.0955984545663368	0.1052407383535146	-0.2926039220293398	-0.1295374029661027	-0.03847429570256393	-0.06015984293971051	0.6829172377605293	0.6829172375467665	-0.4627166910530432	-0.1501977721259282
142.556	-0.2831067032426291	-0.07423849623893236	-0.03864118023253953	1.125631884966706	0.9972956091468897	-0.3451059168537601	0.6165239893815213	0.1030531917184787	0.1663284591345056	0.09872915537580036	0.09872915422680421	0.1066703265664994	-0.2933414660169109	-0.1285412497226333	-0.04238706603879223	-0.0593712938816264	0.7172378344910677	0.7172378342018391	-0.4621402275004696	-0.1513112065231639
142.56	-0.2770845718275179	-0.07676870036288	-0.03704752560367207	1.125782983815336	0.9954872992320006	-0.3449198824855589	0.6087416035667289	0.1051284410468378	0.1619916690662452	0.1046233770144029	0.1046233758515496	0.1076195392487818	-0.2942901420418428	-0.1274657995575588	-0.04748523065737977	-0.05994703237892166	0.7517774623478655	0.7517774619853825	-0.4612889945839687	-0.1533368400946738
142.564	-0.2710162417603705	-0.08008421519344718	-0.03596383746847376	1.125919845471274	0.9935265325877571	-0.3446747269431373	0.6012487859752571	0.1083316790095988	0.1572177892290672	0.1131980962307747	0.1131980950864465	0.108100786219743	-0.2954501766158549	-0.1262395703102494	-0.05375137431619294	-0.06186996906713656	0.7865570963210414	0.7865570958930964	-0.4600806005465558	-0.1564028822801854
142.568	-0.2649793682628439	-0.08413612090412674	-0.0354118310679928	1.12603671546479	0.9914031034901964	-0.344370119902074	0.5941625845666231	0.1126240139706339	0.1520790623856513	0.1243646427430814	0.1243646416480591	0.1081500852633822	-0.296837294281004	-0.1247841872479778	-0.06115271092139193	-0.06509099400401609	0.8215958282248741	0.8215958277442857	-0.4584547069147204	-0.1606182835960185
142.572	-0.2590543047639713	-0.08886635724765488	-0.03540761126561549	1.126126748790497	0.9891083371132182	-0.3440066004825321	0.5876048399053116	0.1179531214732771	0.1466507615001202	0.1380301999177087	0.1380301988992811	0.107829058874686	-0.2984788243288432	-0.1230153746369087	-0.06964212526836643	-0.06953143454335453	0.8569088478612462	0.8569088473446559	-0.4563751149347807	-0.1660686017281342
